<mxfile host="Electron" agent="Mozilla/5.0 (Macintosh; Intel Mac OS X 10_15_7) AppleWebKit/537.36 (KHTML, like Gecko) draw.io/26.2.2 Chrome/134.0.6998.178 Electron/35.1.2 Safari/537.36" version="26.2.2">
  <diagram id="C5RBs43oDa-KdzZeNtuy" name="Page-1">
    <mxGraphModel dx="951" dy="679" grid="1" gridSize="10" guides="1" tooltips="1" connect="1" arrows="1" fold="1" page="1" pageScale="1" pageWidth="827" pageHeight="1169" math="0" shadow="0">
      <root>
        <mxCell id="WIyWlLk6GJQsqaUBKTNV-0" />
        <mxCell id="WIyWlLk6GJQsqaUBKTNV-1" parent="WIyWlLk6GJQsqaUBKTNV-0" />
        <mxCell id="jGkuGe6WWfxTbhynXy6A-0" value="Start" style="strokeWidth=2;html=1;shape=mxgraph.flowchart.terminator;whiteSpace=wrap;fontSize=8;" vertex="1" parent="WIyWlLk6GJQsqaUBKTNV-1">
          <mxGeometry x="67.5" y="20" width="50" height="30" as="geometry" />
        </mxCell>
        <mxCell id="jGkuGe6WWfxTbhynXy6A-1" value="get customer&lt;div&gt;phone number&lt;/div&gt;" style="shape=parallelogram;html=1;strokeWidth=2;perimeter=parallelogramPerimeter;whiteSpace=wrap;rounded=1;arcSize=12;size=0.23;fontSize=8;" vertex="1" parent="WIyWlLk6GJQsqaUBKTNV-1">
          <mxGeometry x="40" y="90" width="110" height="30" as="geometry" />
        </mxCell>
        <mxCell id="jGkuGe6WWfxTbhynXy6A-5" style="edgeStyle=orthogonalEdgeStyle;rounded=0;orthogonalLoop=1;jettySize=auto;html=1;exitX=0;exitY=0.5;exitDx=0;exitDy=0;exitPerimeter=0;entryX=0;entryY=0.25;entryDx=0;entryDy=0;" edge="1" parent="WIyWlLk6GJQsqaUBKTNV-1" source="jGkuGe6WWfxTbhynXy6A-4" target="jGkuGe6WWfxTbhynXy6A-1">
          <mxGeometry relative="1" as="geometry">
            <mxPoint x="65" y="155" as="sourcePoint" />
            <mxPoint x="50" y="100" as="targetPoint" />
            <Array as="points">
              <mxPoint x="30" y="195" />
              <mxPoint x="30" y="100" />
            </Array>
          </mxGeometry>
        </mxCell>
        <mxCell id="jGkuGe6WWfxTbhynXy6A-6" value="&lt;font style=&quot;font-size: 7px;&quot;&gt;no&lt;/font&gt;" style="edgeLabel;html=1;align=center;verticalAlign=middle;resizable=0;points=[];" vertex="1" connectable="0" parent="jGkuGe6WWfxTbhynXy6A-5">
          <mxGeometry x="0.0958" y="1" relative="1" as="geometry">
            <mxPoint as="offset" />
          </mxGeometry>
        </mxCell>
        <mxCell id="jGkuGe6WWfxTbhynXy6A-4" value="&lt;font&gt;phone # is valid&amp;nbsp;&lt;/font&gt;&lt;span style=&quot;background-color: transparent; color: light-dark(rgb(0, 0, 0), rgb(255, 255, 255));&quot;&gt;format?&lt;/span&gt;" style="strokeWidth=2;html=1;shape=mxgraph.flowchart.decision;whiteSpace=wrap;fontSize=8;" vertex="1" parent="WIyWlLk6GJQsqaUBKTNV-1">
          <mxGeometry x="55" y="160" width="75" height="70" as="geometry" />
        </mxCell>
        <mxCell id="jGkuGe6WWfxTbhynXy6A-7" value="" style="endArrow=classic;html=1;rounded=0;exitX=0.475;exitY=1.038;exitDx=0;exitDy=0;exitPerimeter=0;entryX=0.5;entryY=0;entryDx=0;entryDy=0;entryPerimeter=0;" edge="1" parent="WIyWlLk6GJQsqaUBKTNV-1" source="jGkuGe6WWfxTbhynXy6A-1" target="jGkuGe6WWfxTbhynXy6A-4">
          <mxGeometry width="50" height="50" relative="1" as="geometry">
            <mxPoint x="100" y="180" as="sourcePoint" />
            <mxPoint x="150" y="130" as="targetPoint" />
          </mxGeometry>
        </mxCell>
        <mxCell id="jGkuGe6WWfxTbhynXy6A-8" value="" style="endArrow=classic;html=1;rounded=0;exitX=0.5;exitY=1;exitDx=0;exitDy=0;exitPerimeter=0;entryX=0.475;entryY=-0.005;entryDx=0;entryDy=0;entryPerimeter=0;" edge="1" parent="WIyWlLk6GJQsqaUBKTNV-1" source="jGkuGe6WWfxTbhynXy6A-0" target="jGkuGe6WWfxTbhynXy6A-1">
          <mxGeometry width="50" height="50" relative="1" as="geometry">
            <mxPoint x="102" y="131" as="sourcePoint" />
            <mxPoint x="103" y="170" as="targetPoint" />
          </mxGeometry>
        </mxCell>
        <mxCell id="jGkuGe6WWfxTbhynXy6A-14" value="" style="edgeStyle=orthogonalEdgeStyle;rounded=0;orthogonalLoop=1;jettySize=auto;html=1;entryX=0;entryY=0.5;entryDx=0;entryDy=0;" edge="1" parent="WIyWlLk6GJQsqaUBKTNV-1" source="jGkuGe6WWfxTbhynXy6A-9" target="jGkuGe6WWfxTbhynXy6A-16">
          <mxGeometry relative="1" as="geometry">
            <mxPoint x="280" y="160" as="targetPoint" />
          </mxGeometry>
        </mxCell>
        <mxCell id="jGkuGe6WWfxTbhynXy6A-15" value="&lt;font style=&quot;font-size: 7px;&quot;&gt;yes&lt;/font&gt;" style="edgeLabel;html=1;align=center;verticalAlign=middle;resizable=0;points=[];" vertex="1" connectable="0" parent="jGkuGe6WWfxTbhynXy6A-14">
          <mxGeometry x="-0.1786" relative="1" as="geometry">
            <mxPoint as="offset" />
          </mxGeometry>
        </mxCell>
        <mxCell id="jGkuGe6WWfxTbhynXy6A-20" value="" style="edgeStyle=orthogonalEdgeStyle;rounded=0;orthogonalLoop=1;jettySize=auto;html=1;" edge="1" parent="WIyWlLk6GJQsqaUBKTNV-1" source="jGkuGe6WWfxTbhynXy6A-9" target="jGkuGe6WWfxTbhynXy6A-19">
          <mxGeometry relative="1" as="geometry" />
        </mxCell>
        <mxCell id="jGkuGe6WWfxTbhynXy6A-21" value="no" style="edgeLabel;html=1;align=center;verticalAlign=middle;resizable=0;points=[];fontSize=8;" vertex="1" connectable="0" parent="jGkuGe6WWfxTbhynXy6A-20">
          <mxGeometry x="-0.3226" y="2" relative="1" as="geometry">
            <mxPoint x="-3" as="offset" />
          </mxGeometry>
        </mxCell>
        <mxCell id="jGkuGe6WWfxTbhynXy6A-9" value="&lt;font&gt;phone # belongs to existing customer?&lt;/font&gt;" style="strokeWidth=2;html=1;shape=mxgraph.flowchart.decision;whiteSpace=wrap;fontSize=8;" vertex="1" parent="WIyWlLk6GJQsqaUBKTNV-1">
          <mxGeometry x="170" y="155" width="90" height="80" as="geometry" />
        </mxCell>
        <mxCell id="jGkuGe6WWfxTbhynXy6A-11" style="edgeStyle=orthogonalEdgeStyle;rounded=0;orthogonalLoop=1;jettySize=auto;html=1;entryX=0;entryY=0.5;entryDx=0;entryDy=0;entryPerimeter=0;" edge="1" parent="WIyWlLk6GJQsqaUBKTNV-1" source="jGkuGe6WWfxTbhynXy6A-4" target="jGkuGe6WWfxTbhynXy6A-9">
          <mxGeometry relative="1" as="geometry" />
        </mxCell>
        <mxCell id="jGkuGe6WWfxTbhynXy6A-12" value="&lt;font style=&quot;font-size: 7px;&quot;&gt;yes&lt;/font&gt;" style="edgeLabel;html=1;align=center;verticalAlign=middle;resizable=0;points=[];" vertex="1" connectable="0" parent="jGkuGe6WWfxTbhynXy6A-11">
          <mxGeometry x="-0.6503" y="1" relative="1" as="geometry">
            <mxPoint x="8" y="-1" as="offset" />
          </mxGeometry>
        </mxCell>
        <mxCell id="jGkuGe6WWfxTbhynXy6A-30" value="" style="edgeStyle=orthogonalEdgeStyle;rounded=0;orthogonalLoop=1;jettySize=auto;html=1;entryX=1;entryY=0.5;entryDx=0;entryDy=0;entryPerimeter=0;" edge="1" parent="WIyWlLk6GJQsqaUBKTNV-1" source="jGkuGe6WWfxTbhynXy6A-41" target="jGkuGe6WWfxTbhynXy6A-31">
          <mxGeometry relative="1" as="geometry">
            <mxPoint x="345" y="355" as="targetPoint" />
            <Array as="points">
              <mxPoint x="465" y="410" />
            </Array>
          </mxGeometry>
        </mxCell>
        <mxCell id="jGkuGe6WWfxTbhynXy6A-36" style="edgeStyle=orthogonalEdgeStyle;rounded=0;orthogonalLoop=1;jettySize=auto;html=1;entryX=0;entryY=0.5;entryDx=0;entryDy=0;" edge="1" parent="WIyWlLk6GJQsqaUBKTNV-1" source="jGkuGe6WWfxTbhynXy6A-13" target="jGkuGe6WWfxTbhynXy6A-35">
          <mxGeometry relative="1" as="geometry" />
        </mxCell>
        <mxCell id="jGkuGe6WWfxTbhynXy6A-37" value="&lt;font style=&quot;font-size: 10px;&quot;&gt;yes&lt;/font&gt;" style="edgeLabel;html=1;align=center;verticalAlign=middle;resizable=0;points=[];" vertex="1" connectable="0" parent="jGkuGe6WWfxTbhynXy6A-36">
          <mxGeometry x="-0.2697" relative="1" as="geometry">
            <mxPoint as="offset" />
          </mxGeometry>
        </mxCell>
        <mxCell id="jGkuGe6WWfxTbhynXy6A-13" value="&lt;font&gt;does&amp;nbsp;&lt;/font&gt;&lt;div&gt;&lt;font&gt;customer have at&lt;/font&gt;&lt;/div&gt;&lt;div&gt;&lt;font&gt;least one past appointment?&lt;/font&gt;&lt;/div&gt;" style="strokeWidth=2;html=1;shape=mxgraph.flowchart.decision;whiteSpace=wrap;fontSize=8;" vertex="1" parent="WIyWlLk6GJQsqaUBKTNV-1">
          <mxGeometry x="420" y="155" width="90" height="80" as="geometry" />
        </mxCell>
        <mxCell id="jGkuGe6WWfxTbhynXy6A-16" value="display returning&lt;div&gt;customer message&lt;/div&gt;" style="whiteSpace=wrap;html=1;fontSize=8;strokeWidth=2;shape=parallelogram;perimeter=parallelogramPerimeter;rounded=1;arcSize=12;size=0.23;" vertex="1" parent="WIyWlLk6GJQsqaUBKTNV-1">
          <mxGeometry x="300" y="180" width="100" height="30" as="geometry" />
        </mxCell>
        <mxCell id="jGkuGe6WWfxTbhynXy6A-25" value="" style="edgeStyle=orthogonalEdgeStyle;rounded=0;orthogonalLoop=1;jettySize=auto;html=1;" edge="1" parent="WIyWlLk6GJQsqaUBKTNV-1" source="jGkuGe6WWfxTbhynXy6A-19" target="jGkuGe6WWfxTbhynXy6A-24">
          <mxGeometry relative="1" as="geometry" />
        </mxCell>
        <mxCell id="jGkuGe6WWfxTbhynXy6A-19" value="gather&lt;div&gt;customer info&amp;nbsp;&lt;/div&gt;" style="whiteSpace=wrap;html=1;fontSize=8;strokeWidth=2;shape=parallelogram;perimeter=parallelogramPerimeter;rounded=1;arcSize=12;size=0.23;" vertex="1" parent="WIyWlLk6GJQsqaUBKTNV-1">
          <mxGeometry x="167.5" y="270" width="95" height="40" as="geometry" />
        </mxCell>
        <mxCell id="jGkuGe6WWfxTbhynXy6A-28" value="" style="edgeStyle=orthogonalEdgeStyle;rounded=0;orthogonalLoop=1;jettySize=auto;html=1;" edge="1" parent="WIyWlLk6GJQsqaUBKTNV-1" source="jGkuGe6WWfxTbhynXy6A-24">
          <mxGeometry relative="1" as="geometry">
            <mxPoint x="215" y="400" as="targetPoint" />
          </mxGeometry>
        </mxCell>
        <mxCell id="jGkuGe6WWfxTbhynXy6A-24" value="create customer in db / obj" style="whiteSpace=wrap;html=1;fontSize=8;strokeWidth=2;rounded=1;arcSize=12;" vertex="1" parent="WIyWlLk6GJQsqaUBKTNV-1">
          <mxGeometry x="176.25" y="340" width="77.5" height="40" as="geometry" />
        </mxCell>
        <mxCell id="jGkuGe6WWfxTbhynXy6A-49" style="edgeStyle=orthogonalEdgeStyle;rounded=0;orthogonalLoop=1;jettySize=auto;html=1;entryX=0;entryY=0.5;entryDx=0;entryDy=0;entryPerimeter=0;" edge="1" parent="WIyWlLk6GJQsqaUBKTNV-1" source="jGkuGe6WWfxTbhynXy6A-27" target="jGkuGe6WWfxTbhynXy6A-48">
          <mxGeometry relative="1" as="geometry">
            <Array as="points">
              <mxPoint x="215" y="510" />
            </Array>
          </mxGeometry>
        </mxCell>
        <mxCell id="jGkuGe6WWfxTbhynXy6A-27" value="get haircut &amp;amp;&lt;div&gt;stylist inputs&lt;/div&gt;" style="whiteSpace=wrap;html=1;fontSize=8;strokeWidth=2;rounded=1;arcSize=12;shape=parallelogram;perimeter=parallelogramPerimeter;size=0.23;" vertex="1" parent="WIyWlLk6GJQsqaUBKTNV-1">
          <mxGeometry x="173.13" y="440" width="83.75" height="30" as="geometry" />
        </mxCell>
        <mxCell id="jGkuGe6WWfxTbhynXy6A-33" style="edgeStyle=orthogonalEdgeStyle;rounded=0;orthogonalLoop=1;jettySize=auto;html=1;entryX=0.5;entryY=0;entryDx=0;entryDy=0;" edge="1" parent="WIyWlLk6GJQsqaUBKTNV-1" source="jGkuGe6WWfxTbhynXy6A-31" target="jGkuGe6WWfxTbhynXy6A-27">
          <mxGeometry relative="1" as="geometry" />
        </mxCell>
        <mxCell id="jGkuGe6WWfxTbhynXy6A-31" value="" style="verticalLabelPosition=bottom;verticalAlign=top;html=1;shape=mxgraph.flowchart.on-page_reference;" vertex="1" parent="WIyWlLk6GJQsqaUBKTNV-1">
          <mxGeometry x="205.01" y="400" width="20" height="20" as="geometry" />
        </mxCell>
        <mxCell id="jGkuGe6WWfxTbhynXy6A-34" style="edgeStyle=orthogonalEdgeStyle;rounded=0;orthogonalLoop=1;jettySize=auto;html=1;entryX=0;entryY=0.5;entryDx=0;entryDy=0;entryPerimeter=0;" edge="1" parent="WIyWlLk6GJQsqaUBKTNV-1" source="jGkuGe6WWfxTbhynXy6A-16" target="jGkuGe6WWfxTbhynXy6A-13">
          <mxGeometry relative="1" as="geometry" />
        </mxCell>
        <mxCell id="jGkuGe6WWfxTbhynXy6A-35" value="get customer&lt;div&gt;choice&amp;nbsp;&lt;span style=&quot;background-color: transparent; color: light-dark(rgb(0, 0, 0), rgb(255, 255, 255));&quot;&gt;of using&lt;/span&gt;&lt;/div&gt;&lt;div&gt;&lt;span style=&quot;background-color: transparent; color: light-dark(rgb(0, 0, 0), rgb(255, 255, 255));&quot;&gt;last appt choices&lt;/span&gt;&lt;/div&gt;" style="whiteSpace=wrap;html=1;fontSize=8;strokeWidth=2;shape=parallelogram;perimeter=parallelogramPerimeter;rounded=1;arcSize=12;size=0.23;" vertex="1" parent="WIyWlLk6GJQsqaUBKTNV-1">
          <mxGeometry x="550" y="175" width="100" height="40" as="geometry" />
        </mxCell>
        <mxCell id="jGkuGe6WWfxTbhynXy6A-40" style="edgeStyle=orthogonalEdgeStyle;rounded=0;orthogonalLoop=1;jettySize=auto;html=1;entryX=1;entryY=0.5;entryDx=0;entryDy=0;entryPerimeter=0;" edge="1" parent="WIyWlLk6GJQsqaUBKTNV-1" source="jGkuGe6WWfxTbhynXy6A-38" target="jGkuGe6WWfxTbhynXy6A-41">
          <mxGeometry relative="1" as="geometry">
            <mxPoint x="630" y="410" as="targetPoint" />
            <Array as="points">
              <mxPoint x="725" y="410" />
            </Array>
          </mxGeometry>
        </mxCell>
        <mxCell id="jGkuGe6WWfxTbhynXy6A-44" value="no" style="edgeLabel;html=1;align=center;verticalAlign=middle;resizable=0;points=[];" vertex="1" connectable="0" parent="jGkuGe6WWfxTbhynXy6A-40">
          <mxGeometry x="-0.7169" y="1" relative="1" as="geometry">
            <mxPoint as="offset" />
          </mxGeometry>
        </mxCell>
        <mxCell id="jGkuGe6WWfxTbhynXy6A-45" style="edgeStyle=orthogonalEdgeStyle;rounded=0;orthogonalLoop=1;jettySize=auto;html=1;entryX=1;entryY=0.5;entryDx=0;entryDy=0;" edge="1" parent="WIyWlLk6GJQsqaUBKTNV-1" source="jGkuGe6WWfxTbhynXy6A-38" target="jGkuGe6WWfxTbhynXy6A-46">
          <mxGeometry relative="1" as="geometry">
            <mxPoint x="800" y="460.64516129032256" as="targetPoint" />
            <Array as="points">
              <mxPoint x="800" y="195" />
              <mxPoint x="800" y="455" />
            </Array>
          </mxGeometry>
        </mxCell>
        <mxCell id="jGkuGe6WWfxTbhynXy6A-47" value="yes" style="edgeLabel;html=1;align=center;verticalAlign=middle;resizable=0;points=[];" vertex="1" connectable="0" parent="jGkuGe6WWfxTbhynXy6A-45">
          <mxGeometry x="-0.1396" relative="1" as="geometry">
            <mxPoint x="18" y="-155" as="offset" />
          </mxGeometry>
        </mxCell>
        <mxCell id="jGkuGe6WWfxTbhynXy6A-38" value="customer will use&lt;div&gt;same options as their most recent appt?&lt;/div&gt;" style="strokeWidth=2;html=1;shape=mxgraph.flowchart.decision;whiteSpace=wrap;fontSize=8;" vertex="1" parent="WIyWlLk6GJQsqaUBKTNV-1">
          <mxGeometry x="680" y="155" width="90" height="80" as="geometry" />
        </mxCell>
        <mxCell id="jGkuGe6WWfxTbhynXy6A-39" style="edgeStyle=orthogonalEdgeStyle;rounded=0;orthogonalLoop=1;jettySize=auto;html=1;entryX=0;entryY=0.5;entryDx=0;entryDy=0;entryPerimeter=0;" edge="1" parent="WIyWlLk6GJQsqaUBKTNV-1" source="jGkuGe6WWfxTbhynXy6A-35" target="jGkuGe6WWfxTbhynXy6A-38">
          <mxGeometry relative="1" as="geometry" />
        </mxCell>
        <mxCell id="jGkuGe6WWfxTbhynXy6A-42" value="" style="edgeStyle=orthogonalEdgeStyle;rounded=0;orthogonalLoop=1;jettySize=auto;html=1;entryX=0.5;entryY=0;entryDx=0;entryDy=0;entryPerimeter=0;" edge="1" parent="WIyWlLk6GJQsqaUBKTNV-1" source="jGkuGe6WWfxTbhynXy6A-13" target="jGkuGe6WWfxTbhynXy6A-41">
          <mxGeometry relative="1" as="geometry">
            <mxPoint x="465" y="235" as="sourcePoint" />
            <mxPoint x="225" y="410" as="targetPoint" />
            <Array as="points" />
          </mxGeometry>
        </mxCell>
        <mxCell id="jGkuGe6WWfxTbhynXy6A-43" value="no" style="edgeLabel;html=1;align=center;verticalAlign=middle;resizable=0;points=[];fontSize=9;" vertex="1" connectable="0" parent="jGkuGe6WWfxTbhynXy6A-42">
          <mxGeometry x="-0.5178" y="-1" relative="1" as="geometry">
            <mxPoint as="offset" />
          </mxGeometry>
        </mxCell>
        <mxCell id="jGkuGe6WWfxTbhynXy6A-41" value="" style="verticalLabelPosition=bottom;verticalAlign=top;html=1;shape=mxgraph.flowchart.on-page_reference;" vertex="1" parent="WIyWlLk6GJQsqaUBKTNV-1">
          <mxGeometry x="455" y="400" width="20" height="20" as="geometry" />
        </mxCell>
        <mxCell id="jGkuGe6WWfxTbhynXy6A-46" value="get last haircut/stylist from appt data" style="whiteSpace=wrap;html=1;fontSize=8;strokeWidth=2;rounded=1;arcSize=12;shape=label;size=0.23;" vertex="1" parent="WIyWlLk6GJQsqaUBKTNV-1">
          <mxGeometry x="290" y="440" width="83.75" height="30" as="geometry" />
        </mxCell>
        <mxCell id="jGkuGe6WWfxTbhynXy6A-52" style="edgeStyle=orthogonalEdgeStyle;rounded=0;orthogonalLoop=1;jettySize=auto;html=1;entryX=0.5;entryY=0;entryDx=0;entryDy=0;" edge="1" parent="WIyWlLk6GJQsqaUBKTNV-1" source="jGkuGe6WWfxTbhynXy6A-48" target="jGkuGe6WWfxTbhynXy6A-51">
          <mxGeometry relative="1" as="geometry" />
        </mxCell>
        <mxCell id="jGkuGe6WWfxTbhynXy6A-48" value="" style="verticalLabelPosition=bottom;verticalAlign=top;html=1;shape=mxgraph.flowchart.on-page_reference;" vertex="1" parent="WIyWlLk6GJQsqaUBKTNV-1">
          <mxGeometry x="262.5" y="500" width="20" height="20" as="geometry" />
        </mxCell>
        <mxCell id="jGkuGe6WWfxTbhynXy6A-50" style="edgeStyle=orthogonalEdgeStyle;rounded=0;orthogonalLoop=1;jettySize=auto;html=1;entryX=1;entryY=0.5;entryDx=0;entryDy=0;entryPerimeter=0;" edge="1" parent="WIyWlLk6GJQsqaUBKTNV-1" source="jGkuGe6WWfxTbhynXy6A-46" target="jGkuGe6WWfxTbhynXy6A-48">
          <mxGeometry relative="1" as="geometry">
            <Array as="points">
              <mxPoint x="330" y="510" />
            </Array>
          </mxGeometry>
        </mxCell>
        <mxCell id="jGkuGe6WWfxTbhynXy6A-54" value="" style="edgeStyle=orthogonalEdgeStyle;rounded=0;orthogonalLoop=1;jettySize=auto;html=1;" edge="1" parent="WIyWlLk6GJQsqaUBKTNV-1" source="jGkuGe6WWfxTbhynXy6A-51" target="jGkuGe6WWfxTbhynXy6A-53">
          <mxGeometry relative="1" as="geometry" />
        </mxCell>
        <mxCell id="jGkuGe6WWfxTbhynXy6A-51" value="Perform haircut (print&lt;div&gt;message that haircut&lt;/div&gt;&lt;div&gt;was performed)&lt;/div&gt;" style="whiteSpace=wrap;html=1;fontSize=8;strokeWidth=2;rounded=1;arcSize=12;shape=parallelogram;size=0.23;perimeter=parallelogramPerimeter;" vertex="1" parent="WIyWlLk6GJQsqaUBKTNV-1">
          <mxGeometry x="210.31" y="540" width="124.38" height="45" as="geometry" />
        </mxCell>
        <mxCell id="jGkuGe6WWfxTbhynXy6A-56" value="" style="edgeStyle=orthogonalEdgeStyle;rounded=0;orthogonalLoop=1;jettySize=auto;html=1;" edge="1" parent="WIyWlLk6GJQsqaUBKTNV-1" source="jGkuGe6WWfxTbhynXy6A-53" target="jGkuGe6WWfxTbhynXy6A-55">
          <mxGeometry relative="1" as="geometry" />
        </mxCell>
        <mxCell id="jGkuGe6WWfxTbhynXy6A-53" value="get input of customer&lt;div&gt;satisfaction&lt;/div&gt;" style="whiteSpace=wrap;html=1;fontSize=8;strokeWidth=2;rounded=1;arcSize=12;shape=parallelogram;size=0.23;perimeter=parallelogramPerimeter;" vertex="1" parent="WIyWlLk6GJQsqaUBKTNV-1">
          <mxGeometry x="210.31" y="610" width="124.38" height="45" as="geometry" />
        </mxCell>
        <mxCell id="jGkuGe6WWfxTbhynXy6A-59" value="" style="edgeStyle=orthogonalEdgeStyle;rounded=0;orthogonalLoop=1;jettySize=auto;html=1;" edge="1" parent="WIyWlLk6GJQsqaUBKTNV-1" source="jGkuGe6WWfxTbhynXy6A-55" target="jGkuGe6WWfxTbhynXy6A-58">
          <mxGeometry relative="1" as="geometry" />
        </mxCell>
        <mxCell id="jGkuGe6WWfxTbhynXy6A-55" value="Create appointment in database" style="whiteSpace=wrap;html=1;fontSize=8;strokeWidth=2;rounded=1;arcSize=12;" vertex="1" parent="WIyWlLk6GJQsqaUBKTNV-1">
          <mxGeometry x="228.75" y="680" width="87.5" height="40" as="geometry" />
        </mxCell>
        <mxCell id="jGkuGe6WWfxTbhynXy6A-58" value="display thank you&lt;div&gt;message&lt;/div&gt;" style="shape=parallelogram;perimeter=parallelogramPerimeter;whiteSpace=wrap;html=1;fixedSize=1;fontSize=8;strokeWidth=2;rounded=1;arcSize=12;" vertex="1" parent="WIyWlLk6GJQsqaUBKTNV-1">
          <mxGeometry x="223.75" y="750" width="97.5" height="30" as="geometry" />
        </mxCell>
        <mxCell id="jGkuGe6WWfxTbhynXy6A-60" value="End" style="strokeWidth=2;html=1;shape=mxgraph.flowchart.terminator;whiteSpace=wrap;fontSize=8;" vertex="1" parent="WIyWlLk6GJQsqaUBKTNV-1">
          <mxGeometry x="247.5" y="800" width="50" height="30" as="geometry" />
        </mxCell>
        <mxCell id="jGkuGe6WWfxTbhynXy6A-61" style="edgeStyle=orthogonalEdgeStyle;rounded=0;orthogonalLoop=1;jettySize=auto;html=1;entryX=0.5;entryY=0;entryDx=0;entryDy=0;entryPerimeter=0;" edge="1" parent="WIyWlLk6GJQsqaUBKTNV-1" source="jGkuGe6WWfxTbhynXy6A-58" target="jGkuGe6WWfxTbhynXy6A-60">
          <mxGeometry relative="1" as="geometry" />
        </mxCell>
      </root>
    </mxGraphModel>
  </diagram>
</mxfile>
